<mxfile host="app.diagrams.net" modified="2023-07-20T09:39:19.211Z" agent="Mozilla/5.0 (Windows NT 10.0; Win64; x64) AppleWebKit/537.36 (KHTML, like Gecko) Chrome/114.0.0.0 Safari/537.36" etag="ry_zMoGZE4NYilsZoVGs" version="21.6.3" type="device">
  <diagram name="Page-1" id="kFfNtcDv_OdIqHoLkVjp">
    <mxGraphModel dx="989" dy="482" grid="1" gridSize="10" guides="1" tooltips="1" connect="1" arrows="1" fold="1" page="1" pageScale="1" pageWidth="850" pageHeight="1100" math="0" shadow="0">
      <root>
        <mxCell id="0" />
        <mxCell id="1" parent="0" />
        <mxCell id="6p931Qj7TU5zyaHA-EGV-8" value="" style="edgeStyle=orthogonalEdgeStyle;rounded=0;orthogonalLoop=1;jettySize=auto;html=1;" edge="1" parent="1" source="6p931Qj7TU5zyaHA-EGV-4" target="6p931Qj7TU5zyaHA-EGV-7">
          <mxGeometry relative="1" as="geometry" />
        </mxCell>
        <mxCell id="6p931Qj7TU5zyaHA-EGV-4" value="Data" style="shape=hexagon;perimeter=hexagonPerimeter2;whiteSpace=wrap;html=1;fixedSize=1;" vertex="1" parent="1">
          <mxGeometry x="80" y="40" width="80" height="40" as="geometry" />
        </mxCell>
        <mxCell id="6p931Qj7TU5zyaHA-EGV-14" value="" style="edgeStyle=orthogonalEdgeStyle;rounded=0;orthogonalLoop=1;jettySize=auto;html=1;" edge="1" parent="1" source="6p931Qj7TU5zyaHA-EGV-7" target="6p931Qj7TU5zyaHA-EGV-13">
          <mxGeometry relative="1" as="geometry" />
        </mxCell>
        <mxCell id="6p931Qj7TU5zyaHA-EGV-7" value="Standard Scaler" style="whiteSpace=wrap;html=1;" vertex="1" parent="1">
          <mxGeometry x="200" y="40" width="120" height="40" as="geometry" />
        </mxCell>
        <mxCell id="6p931Qj7TU5zyaHA-EGV-12" value="" style="edgeStyle=orthogonalEdgeStyle;rounded=0;orthogonalLoop=1;jettySize=auto;html=1;" edge="1" parent="1" source="6p931Qj7TU5zyaHA-EGV-9" target="6p931Qj7TU5zyaHA-EGV-11">
          <mxGeometry relative="1" as="geometry" />
        </mxCell>
        <mxCell id="6p931Qj7TU5zyaHA-EGV-9" value="KMeans Clustering" style="whiteSpace=wrap;html=1;" vertex="1" parent="1">
          <mxGeometry x="520" y="40" width="120" height="40" as="geometry" />
        </mxCell>
        <mxCell id="6p931Qj7TU5zyaHA-EGV-11" value="Cluster Labels" style="shape=hexagon;perimeter=hexagonPerimeter2;whiteSpace=wrap;html=1;fixedSize=1;" vertex="1" parent="1">
          <mxGeometry x="680" y="40" width="120" height="40" as="geometry" />
        </mxCell>
        <mxCell id="6p931Qj7TU5zyaHA-EGV-15" value="" style="edgeStyle=orthogonalEdgeStyle;rounded=0;orthogonalLoop=1;jettySize=auto;html=1;" edge="1" parent="1" source="6p931Qj7TU5zyaHA-EGV-13" target="6p931Qj7TU5zyaHA-EGV-9">
          <mxGeometry relative="1" as="geometry" />
        </mxCell>
        <mxCell id="6p931Qj7TU5zyaHA-EGV-13" value="PCA or ICA" style="whiteSpace=wrap;html=1;" vertex="1" parent="1">
          <mxGeometry x="360" y="40" width="120" height="40" as="geometry" />
        </mxCell>
      </root>
    </mxGraphModel>
  </diagram>
</mxfile>
